<svg xmlns="http://www.w3.org/2000/svg" xmlns:xlink="http://www.w3.org/1999/xlink" fill="none" version="1.1" width="40" height="40" viewBox="0 0 40 40"><defs><filter id="master_svg0_261_02183" filterUnits="objectBoundingBox" color-interpolation-filters="sRGB" x="0" y="0" width="40" height="40"><feFlood flood-opacity="0" result="BackgroundImageFix"/><feBlend mode="normal" in="SourceGraphic" in2="BackgroundImageFix" result="shape"/><feColorMatrix in="SourceAlpha" type="matrix" result="hardAlpha" values="0 0 0 0 0 0 0 0 0 0 0 0 0 0 0 0 0 0 127 0"/><feOffset dy="0" dx="0"/><feGaussianBlur stdDeviation="5"/><feComposite in2="hardAlpha" operator="arithmetic" k2="-1" k3="1"/><feColorMatrix type="matrix" values="0 0 0 0 0.9450980424880981 0 0 0 0 0.3764705955982208 0 0 0 0 0.42352941632270813 0 0 0 0.501960813999176 0"/><feBlend mode="normal" in2="shape" result="effect1_innerShadow"/></filter><radialGradient cx="0" cy="0" r="1" gradientUnits="userSpaceOnUse" id="master_svg1_261_02185" gradientTransform="translate(44.85708236694336 0) rotate(90) scale(34.79053974151611 34.79053974151611)"><stop offset="0%" stop-color="#F1606C" stop-opacity="0.49677667021751404"/><stop offset="100%" stop-color="#F1606C" stop-opacity="0"/></radialGradient><clipPath id="master_svg2_261_02179"><rect x="8" y="8" width="24" height="24" rx="0"/></clipPath><linearGradient x1="0.6774536371231079" y1="1" x2="0.67401123046875" y2="0.05090004950761795" id="master_svg3_261_02182"><stop offset="0%" stop-color="#F1606C" stop-opacity="1"/><stop offset="100%" stop-color="#F4FBFF" stop-opacity="1"/></linearGradient></defs><g><g filter="url(#master_svg0_261_02183)"><ellipse cx="20" cy="20" rx="20" ry="20" fill="url(#master_svg1_261_02185)" fill-opacity="1"/><ellipse cx="20" cy="20" rx="19.5" ry="19.5" fill-opacity="0" stroke-opacity="1" stroke="#F98F98" fill="none" stroke-width="1"/></g><g clip-path="url(#master_svg2_261_02179)"><g><path d="M17.6126,11.18455C16.0211,11.18455,13.5808,12.1035,14.4296,17.7916C14.4424,17.87725,14.4592,17.97035,14.47715,18.06975C14.63175,18.925649999999997,14.87095,20.2499,13.35,21.342C14.384450000000001,22.1908,15.85775,23.0396,17.64825,23.4072C17.576050000000002,23.829900000000002,17.467100000000002,24.3059,17.38275,24.6142C17.23675,25.1478,16.93195,25.526400000000002,16.387,25.6878C15.9071,25.829900000000002,15.404250000000001,25.945,14.88885,26.0629C14.756499999999999,26.0931,14.623249999999999,26.1236,14.48945,26.1548C13.8464,26.3045,13.1917,26.4697,12.61089,26.704C12.0291,26.9386,11.487905,27.2554,11.097085,27.7276C10.6988,28.209,10.4861503,28.8161,10.500700235,29.5748C10.50523019,29.8109,10.70749,30,10.95544,30L29.0445,30C29.2925,30,29.4947,29.8109,29.4993,29.5748C29.514,28.8162,29.3014,28.209,28.9031,27.7276C28.5123,27.2554,27.9711,26.9386,27.3893,26.704C26.8085,26.4697,26.1537,26.3045,25.5106,26.1548C25.3769,26.1236,25.2437,26.0932,25.1114,26.0629C24.5959,25.945,24.093,25.83,23.613,25.6878C23.0681,25.526400000000002,22.763199999999998,25.1478,22.6173,24.6142C22.5169,24.2474,22.3813,23.6433,22.3144,23.1739C23.683500000000002,22.7618,25.1384,22.0217,26.65,20.838900000000002L26.6429,20.832C25.9336,20.153100000000002,24.6035,18.8798,24.5091,15.85815C24.5091,11.69688,21.8562,8.03933,17.6126,11.18455Z" fill="url(#master_svg3_261_02182)" fill-opacity="1"/></g></g></g></svg>