<svg xmlns="http://www.w3.org/2000/svg" xmlns:xlink="http://www.w3.org/1999/xlink" fill="none" version="1.1" width="40" height="40" viewBox="0 0 40 40"><defs><filter id="master_svg0_261_02258" filterUnits="objectBoundingBox" color-interpolation-filters="sRGB" x="0" y="0" width="40" height="40"><feFlood flood-opacity="0" result="BackgroundImageFix"/><feBlend mode="normal" in="SourceGraphic" in2="BackgroundImageFix" result="shape"/><feColorMatrix in="SourceAlpha" type="matrix" result="hardAlpha" values="0 0 0 0 0 0 0 0 0 0 0 0 0 0 0 0 0 0 127 0"/><feOffset dy="0" dx="0"/><feGaussianBlur stdDeviation="5"/><feComposite in2="hardAlpha" operator="arithmetic" k2="-1" k3="1"/><feColorMatrix type="matrix" values="0 0 0 0 0.0941176488995552 0 0 0 0 0.4000000059604645 0 0 0 0 0.8980392217636108 0 0 0 0.501960813999176 0"/><feBlend mode="normal" in2="shape" result="effect1_innerShadow"/></filter><radialGradient cx="0" cy="0" r="1" gradientUnits="userSpaceOnUse" id="master_svg1_261_01245" gradientTransform="translate(44.85708236694336 0) rotate(90) scale(34.79053974151611 34.79053974151611)"><stop offset="0%" stop-color="#01B5E5" stop-opacity="0.49677667021751404"/><stop offset="100%" stop-color="#0078E3" stop-opacity="0"/></radialGradient><clipPath id="master_svg2_261_02254"><rect x="8" y="8" width="24" height="24" rx="0"/></clipPath><linearGradient x1="0.6774536371231079" y1="1" x2="0.67401123046875" y2="0.05090004950761795" id="master_svg3_261_02257"><stop offset="0%" stop-color="#1866E5" stop-opacity="1"/><stop offset="100%" stop-color="#F4FBFF" stop-opacity="1"/></linearGradient></defs><g><g filter="url(#master_svg0_261_02258)"><ellipse cx="20" cy="20" rx="20" ry="20" fill="url(#master_svg1_261_01245)" fill-opacity="1"/><ellipse cx="20" cy="20" rx="19.5" ry="19.5" fill-opacity="0" stroke-opacity="1" stroke="#5998FF" fill="none" stroke-width="1"/></g><g clip-path="url(#master_svg2_261_02254)"><g><path d="M10.50186157,29.1155C10.50186157,29.3279,10.679037,29.5,10.897607,29.5L29.1012,29.5C29.3197,29.5,29.4969,29.3279,29.4969,29.1157L29.4969,28.6565C29.506,28.5182,29.5245,27.8277,29.0694,27.0644C28.7824,26.5832,28.3659,26.1674,27.8314,25.8286C27.1848,25.4189,26.362299999999998,25.122,25.3674,24.9433C25.36,24.9423,24.6223,24.8445,23.8666,24.6515C22.5505,24.3153,22.435499999999998,24.0178,22.4347,24.0149C22.427,23.985500000000002,22.4158,23.9573,22.401400000000002,23.9307C22.390700000000002,23.8752,22.3641,23.6664,22.4149,23.1068C22.544,21.685499999999998,23.3064,20.8455,23.919,20.1706C24.1122,19.95775,24.2947,19.756700000000002,24.435200000000002,19.55955C25.0414,18.709049999999998,25.0976,17.74195,25.1002,17.682000000000002C25.1002,17.56055,25.086199999999998,17.4607,25.0564,17.36815C24.9969,17.182949999999998,24.884900000000002,17.06755,24.8032,16.9833L24.8032,16.9833C24.782,16.9615,24.7626,16.9414,24.7467,16.92295C24.7406,16.9159,24.7245,16.89725,24.7392,16.8015C24.793,16.44905,24.8253,16.153950000000002,24.8408,15.8728C24.8684,15.3719,24.8899,14.6228,24.7607,13.89375C24.744799999999998,13.76925,24.717399999999998,13.63775,24.6747,13.4811C24.5382,12.97907,24.3189,12.54985,24.014200000000002,12.19562C23.9618,12.13861,22.6878,10.796399,18.9894,10.5210042C18.478,10.4829292,17.972450000000002,10.50343919,17.474800000000002,10.5288744C17.35485,10.5348043,17.1906,10.5429442,17.0369,10.5827694C16.65505,10.681684,16.55315,10.923714,16.5264,11.059169C16.48205,11.283539,16.56,11.458074,16.61155,11.57359C16.61905,11.59036,16.6283,11.61106,16.61215,11.66498C16.5263,11.79794,16.39125,11.9178,16.25355,12.03136C16.21375,12.06519,15.286349999999999,12.864840000000001,15.23535,13.90945C15.097850000000001,14.7039,15.10825,15.9417,15.27085,16.7972C15.2803,16.844450000000002,15.29425,16.9144,15.2716,16.96165C15.09675,17.11835,14.89855,17.29595,14.899049999999999,17.7012C14.901150000000001,17.74195,14.9574,18.709049999999998,15.563600000000001,19.55955C15.704,19.75655,15.8863,19.95745,16.079349999999998,20.17015L16.079349999999998,20.17015C16.6924,20.8455,17.45475,21.685499999999998,17.5839,23.1067C17.6347,23.6664,17.6081,23.8752,17.59735,23.9307C17.583,23.9572,17.5718,23.985500000000002,17.5641,24.0149C17.563299999999998,24.0178,17.4487,24.3143,16.1386,24.6498C15.3828,24.8433,14.63875,24.9422,14.61655,24.9454C13.6497,25.1086,12.83219,25.3981,12.18676,25.8057C11.65407,26.142200000000003,11.236772,26.5588,10.946447,27.0438C10.4825866,27.819,10.49512672,28.5249,10.50186157,28.6537L10.50186157,29.1155Z" fill="url(#master_svg3_261_02257)" fill-opacity="1"/></g></g></g></svg>