<svg xmlns="http://www.w3.org/2000/svg" xmlns:xlink="http://www.w3.org/1999/xlink" fill="none" version="1.1" width="98.0001220703125" height="14.49951171875" viewBox="0 0 98.0001220703125 14.49951171875"><defs><linearGradient x1="0.4928181767463684" y1="0.9993975758552551" x2="0.4928181767463684" y2="-0.003397590247914195" id="master_svg0_1_1783"><stop offset="0%" stop-color="#16448C" stop-opacity="1"/><stop offset="100%" stop-color="#E42325" stop-opacity="1"/></linearGradient></defs><g><g><g><path d="M10.5306,0.9867962524294853C7.14286,0.9867962524294853,5.18367,0.9867962524294853,4.73469,0.9867962524294853C4,0.9867962524294853,0,2.131486252429485,0,7.4601862524294855C0,12.788896252429485,4.16326,13.933596252429485,4.73469,13.933596252429485C5.10204,13.933596252429485,7.06122,13.933596252429485,10.5306,13.933596252429485L10.5306,10.894246252429486C7.71428,10.894246252429486,6.20408,10.894246252429486,6,10.894246252429486C5.67347,10.894246252429486,3.55102,10.341646252429486,3.55102,7.420716252429485C3.55102,4.539266252429485,5.67347,3.9866662524294854,6,3.9866662524294854C6.2449,3.9866662524294854,7.7551,3.9866662524294854,10.5306,3.9866662524294854L10.5306,0.9867962524294853Z" fill-rule="evenodd" fill="#FFFFFF" fill-opacity="1"/></g><g><path d="M13.510201454162598,2.841973942198753L16.530611454162596,1.1446839421987534L16.530611454162596,13.973083942198754L13.510201454162598,13.973083942198754L13.510201454162598,2.841973942198753Z" fill-rule="evenodd" fill="#FFFFFF" fill-opacity="1"/></g><g><path d="M49.38774871826172,2.76303200299263L52.40815871826172,1.10521200299263L52.40815871826172,13.89411200299263L49.38774871826172,13.89411200299263L49.38774871826172,2.76303200299263Z" fill-rule="evenodd" fill="#FFFFFF" fill-opacity="1"/></g><g><path d="M31.795915853881837,0.9867962524294853L31.795915853881837,4.065606252429485C26.489785853881834,4.065606252429485,23.795915853881837,4.065606252429485,23.632645853881836,4.065606252429485C23.387745853881835,4.065606252429485,22.857135853881836,4.381376252429485,22.857135853881836,5.012936252429485C22.857135853881836,5.644486252429485,23.428565853881835,5.9602562524294855,23.632645853881836,5.9602562524294855C23.836725853881838,5.9602562524294855,27.755095853881834,5.9602562524294855,28.204075853881836,5.9602562524294855C28.65305585388184,5.9602562524294855,31.795915853881837,6.868116252429485,31.795915853881837,9.946916252429485C31.795915853881837,13.025696252429485,28.938765853881836,13.973096252429485,27.95917585388184,13.973096252429485C27.346935853881835,13.973096252429485,24.530605853881838,13.973096252429485,19.55101585388193,13.973096252429485L19.55101585388193,10.933716252429486C24.775505853881835,10.933716252429486,27.510195853881836,10.933716252429486,27.755095853881834,10.933716252429486C28.122445853881835,10.933716252429486,28.489785853881834,10.499526252429485,28.489785853881834,9.946916252429485C28.489785853881834,9.394316252429485,28.040805853881835,8.999596252429486,27.755095853881834,8.999596252429486C27.510195853881836,8.999596252429486,24.163255853881836,8.999596252429486,23.387745853881835,8.999596252429486C22.653055853881835,8.999596252429486,19.551015853881836,8.249626252429486,19.551015853881836,5.091876252429485C19.551015853881836,1.8946502524294853,22.571425853881834,1.0657400524294853,23.387745853881835,1.0657400524294853C23.918365853881838,0.9867962524294853,26.693865853881835,0.9867962524294853,31.795915853881837,0.9867962524294853Z" fill-rule="evenodd" fill="#FFFFFF" fill-opacity="1"/></g><g><path d="M37.51020390258789,5.052404335575104L37.51020390258789,10.854774335575105C39.10203390258789,10.854774335575105,40.12244390258789,10.854774335575105,40.57142390258789,10.854774335575105C41.30611390258789,10.854774335575105,43.34693390258789,10.262694335575103,43.34693390258789,7.381244335575103C43.34693390258789,4.499794335575103,41.38775390258789,3.986664335575104,40.93877390258789,3.986664335575104C40.61224390258789,3.986664335575104,38.40816390258789,3.986664335575104,34.36734390258789,3.986664335575104L34.36734390258789,0.9473243355751038C38.81632390258789,0.9473243355751038,41.30611390258789,0.9473243355751038,41.79591390258789,0.9473243355751038C42.57142390258789,0.9473243355751038,46.57144390258789,1.9735943355751038,46.57144390258789,7.420714335575104C46.57144390258789,12.828424335575104,42.73469390258789,13.894124335575103,41.79591390258789,13.894124335575103C41.18366390258789,13.894124335575103,38.65305390258789,13.894124335575103,34.36734390258789,13.894124335575103L34.36734390258789,6.789164335575104L37.51020390258789,5.052404335575104Z" fill-rule="evenodd" fill="#FFFFFF" fill-opacity="1"/></g></g><g><g><path d="M81.06111298217773,13.9731L84.04070298217773,13.9731L84.04070298217773,5.52607L85.95907298217773,5.52607L85.95907298217773,3.35511L84.04070298217773,3.35511C84.16315298217773,2.60515,84.65295298217774,2.21043,85.46928298217773,2.21043L85.91826298217774,2.21043L85.91826298217774,0L83.55091298217773,0C81.83662298217773,0.394719,80.97948298217773,1.49993,80.97948298217773,3.31564L79.42846298217773,3.31564L79.42846298217773,5.4866L81.06111298217773,5.4866L81.06111298217773,13.9731Z" fill-rule="evenodd" fill="#FFFFFF" fill-opacity="1"/></g><g><path d="M98.00007860717773,9.39574C98.00007860717773,6.93412,95.71437860717774,5,92.89804860717773,5L92.57151860717774,5C89.71437860717774,5,87.46947860717773,6.96929,87.46947860717773,9.39574L87.46947860717773,9.747399999999999C87.46947860717773,12.20901,89.75518860717773,14.14313,92.57151860717774,14.14313L92.89804860717773,14.14313C95.75518860717773,14.14313,98.00007860717773,12.17384,98.00007860717773,9.747399999999999L98.00007860717773,9.39574ZM90.36742860717773,9.079180000000001C90.36742860717773,7.91871,91.42864860717773,7.00439,92.77558860717774,7.00439C94.12252860717774,7.00439,95.18374860717773,7.91871,95.18374860717773,9.079180000000001L95.18374860717773,10.13416C95.18374860717773,11.29463,94.12252860717774,12.20895,92.77558860717774,12.20895C91.42864860717773,12.20895,90.36742860717773,11.29463,90.36742860717773,10.13416L90.36742860717773,9.079180000000001Z" fill-rule="evenodd" fill="#FFFFFF" fill-opacity="1"/></g><g><path d="M68.12255477905273,6.8419799999999995L73.87765477905273,6.8419799999999995C74.65316477905273,6.99987,75.02051477905273,7.47353,75.02051477905273,8.26297C75.02051477905273,9.05241,75.02051477905273,10.98653,75.02051477905273,14.1048L77.67357477905273,14.1048C77.67357477905273,9.80237,77.67357477905273,7.31564,77.67357477905273,6.56567C77.67357477905273,5.46046,76.73479477905273,4,74.48990477905274,4C73.02051477905273,4,70.85724477905273,4,68.12255477905273,4L68.12255477905273,6.8419799999999995L68.12255477905273,6.8419799999999995Z" fill-rule="evenodd" fill="#FFFFFF" fill-opacity="1"/></g><g><g><path d="M64.12244618530273,5.73663L65.14285618530273,6.13135L65.14285618530273,6.13135L65.14285618530273,1L61.999996185302734,2.57888L61.999996185302734,2.6972899999999997C62.04081248530274,4.03934,62.857139185302735,5.26297,64.12244618530273,5.73663Z" fill-rule="evenodd" fill="#E42325" fill-opacity="1"/></g><g><path d="M62.040812503546476,10.552205085754395L65.14285250354648,10.552205085754395L65.14285250354648,14.499395085754394L62.040812503546476,14.499395085754394L62.040812503546476,10.552205085754395Z" fill-rule="evenodd" fill="#16448C" fill-opacity="1"/></g><g><path d="M63.87754250354648,6.289240327377319L62.040812503546476,4.907720327377319L62.040812503546476,4.907720327377319L62.040812503546476,11.46006032737732L65.18367250354648,11.46006032737732L65.18367250354648,8.815440327377319C65.14285250354648,7.82864032737732,64.69387250354647,6.88132032737732,63.87754250354648,6.289240327377319Z" fill-rule="evenodd" fill="url(#master_svg0_1_1783)" fill-opacity="1"/></g></g><g><path d="M71.10214477905274,8L71.10214477905274,14.43392L68.12255477905273,14.43392L68.12255477905273,8L71.10214477905274,8Z" fill-rule="evenodd" fill="#FFFFFF" fill-opacity="1"/></g></g></g></svg>